<svg xmlns="http://www.w3.org/2000/svg" xmlns:xlink="http://www.w3.org/1999/xlink" width="500" zoomAndPan="magnify" viewBox="0 0 375 149.999998" height="200" preserveAspectRatio="xMidYMid meet" version="1.0"><defs><g/><clipPath id="id1"><path d="M 68.339844 32 L 186.839844 32 L 186.839844 77.667969 L 68.339844 77.667969 Z M 68.339844 32 " clip-rule="nonzero"/></clipPath></defs><path fill="#9be15d" d="M 98.425781 59.140625 L 98.429688 59.152344 C 98.558594 59.671875 99.253906 59.773438 99.53125 59.316406 C 99.785156 58.902344 100.039062 58.488281 100.300781 58.082031 C 101.046875 56.914062 101.832031 55.773438 102.636719 54.652344 C 103.042969 54.09375 103.453125 53.539062 103.867188 52.992188 C 104.285156 52.441406 104.707031 51.898438 105.136719 51.359375 C 105.996094 50.285156 106.878906 49.230469 107.789062 48.199219 C 108.699219 47.167969 109.636719 46.164062 110.609375 45.195312 C 111.578125 44.222656 112.582031 43.285156 113.636719 42.410156 C 114.164062 41.96875 114.707031 41.546875 115.261719 41.148438 C 115.574219 40.925781 115.890625 40.710938 116.210938 40.507812 C 116.25 40.484375 116.285156 40.539062 116.25 40.566406 C 115.945312 40.792969 115.648438 41.03125 115.359375 41.273438 C 114.839844 41.710938 114.335938 42.167969 113.847656 42.644531 C 112.871094 43.589844 111.949219 44.589844 111.066406 45.621094 C 110.183594 46.652344 109.332031 47.714844 108.515625 48.796875 C 107.695312 49.882812 106.90625 50.984375 106.144531 52.109375 C 105.761719 52.671875 105.386719 53.234375 105.019531 53.804688 C 104.652344 54.375 104.292969 54.949219 103.941406 55.527344 C 103.234375 56.679688 102.558594 57.851562 101.921875 59.039062 C 101.667969 59.511719 101.417969 59.988281 101.179688 60.46875 C 100.953125 60.917969 101.339844 61.425781 101.832031 61.328125 C 101.882812 61.320312 101.933594 61.308594 101.984375 61.296875 C 113.710938 58.386719 118.417969 52.320312 121.417969 46.5 C 124.25 41.003906 125.566406 35.730469 129.824219 33.53125 C 130.078125 33.402344 130.035156 33.023438 129.757812 32.957031 C 110.355469 28.167969 94.558594 43.34375 98.425781 59.140625 " fill-opacity="1" fill-rule="nonzero"/><g clip-path="url(#id1)"><path fill="#39b385" d="M 185.757812 75.164062 L 168.386719 61.0625 C 168.007812 60.757812 167.785156 60.292969 167.785156 59.804688 L 167.785156 38.566406 C 167.785156 37.671875 167.0625 36.945312 166.171875 36.945312 L 156.6875 36.945312 C 155.792969 36.945312 155.070312 37.671875 155.070312 38.566406 L 155.070312 46.863281 C 155.070312 48.226562 153.496094 48.980469 152.4375 48.121094 L 133.652344 32.875 C 133.324219 32.609375 132.84375 32.730469 132.671875 33.113281 L 132.667969 33.121094 C 132.292969 33.941406 131.683594 34.609375 130.894531 35.046875 C 128.925781 36.148438 127.800781 38.878906 126.378906 42.335938 C 126.300781 42.519531 126.488281 42.703125 126.671875 42.625 C 127.464844 42.296875 128.398438 42.414062 129.09375 42.980469 L 171.171875 77.128906 C 171.597656 77.476562 172.128906 77.664062 172.679688 77.664062 L 184.875 77.664062 C 186.195312 77.664062 186.785156 75.996094 185.757812 75.164062 Z M 98.347656 62.621094 C 98.339844 62.609375 98.328125 62.597656 98.320312 62.585938 C 96.621094 62.296875 95.242188 61.0625 94.761719 59.390625 L 94.753906 59.363281 C 94.492188 58.433594 94.289062 57.492188 94.140625 56.550781 C 94.050781 55.976562 93.375 55.714844 92.925781 56.082031 L 69.414062 75.164062 C 68.386719 75.996094 68.972656 77.664062 70.292969 77.664062 L 82.492188 77.664062 C 83.042969 77.664062 83.574219 77.476562 84 77.128906 L 100.199219 63.984375 C 99.488281 63.707031 98.851562 63.246094 98.347656 62.621094 Z M 133.042969 59.851562 L 128.621094 59.851562 L 128.621094 64.289062 L 133.042969 64.289062 Z M 126.550781 59.851562 L 122.125 59.851562 L 122.125 64.289062 L 126.550781 64.289062 Z M 133.042969 53.152344 L 128.621094 53.152344 L 128.621094 57.589844 L 133.042969 57.589844 Z M 126.550781 57.589844 L 122.125 57.589844 L 122.125 53.152344 L 126.550781 53.152344 L 126.550781 57.589844 " fill-opacity="1" fill-rule="nonzero"/></g><g fill="#9be15d" fill-opacity="1"><g transform="translate(192.297736, 76.395373)"><g><path d="M 23.109375 -13.03125 L 17.609375 -27.296875 C 17.441406 -27.722656 17.269531 -28.21875 17.09375 -28.78125 C 16.914062 -29.34375 16.742188 -29.941406 16.578125 -30.578125 C 16.234375 -29.253906 15.878906 -28.15625 15.515625 -27.28125 L 10.015625 -13.03125 Z M 33 0 L 29.328125 0 C 28.910156 0 28.566406 -0.101562 28.296875 -0.3125 C 28.035156 -0.53125 27.84375 -0.800781 27.71875 -1.125 L 24.4375 -9.59375 L 8.6875 -9.59375 L 5.40625 -1.125 C 5.3125 -0.832031 5.125 -0.570312 4.84375 -0.34375 C 4.570312 -0.113281 4.226562 0 3.8125 0 L 0.140625 0 L 14.171875 -35.09375 L 18.96875 -35.09375 Z M 33 0 "/></g></g></g><g fill="#9be15d" fill-opacity="1"><g transform="translate(225.445811, 76.395373)"><g><path d="M 9.234375 0 L 4.484375 0 L 4.484375 -35.09375 L 9.234375 -35.09375 Z M 9.234375 0 "/></g></g></g><g fill="#9be15d" fill-opacity="1"><g transform="translate(239.155504, 76.395373)"><g><path d="M 40.984375 -35.09375 L 40.984375 0 L 36.828125 0 L 36.828125 -25.78125 C 36.828125 -26.125 36.835938 -26.488281 36.859375 -26.875 C 36.878906 -27.269531 36.910156 -27.671875 36.953125 -28.078125 L 24.90625 -6.140625 C 24.53125 -5.410156 23.957031 -5.046875 23.1875 -5.046875 L 22.5 -5.046875 C 21.726562 -5.046875 21.15625 -5.410156 20.78125 -6.140625 L 8.5 -28.1875 C 8.59375 -27.320312 8.640625 -26.519531 8.640625 -25.78125 L 8.640625 0 L 4.484375 0 L 4.484375 -35.09375 L 7.984375 -35.09375 C 8.410156 -35.09375 8.734375 -35.050781 8.953125 -34.96875 C 9.179688 -34.882812 9.40625 -34.65625 9.625 -34.28125 L 21.734375 -12.6875 C 21.929688 -12.289062 22.125 -11.878906 22.3125 -11.453125 C 22.5 -11.035156 22.675781 -10.601562 22.84375 -10.15625 C 23.007812 -10.601562 23.179688 -11.039062 23.359375 -11.46875 C 23.535156 -11.90625 23.734375 -12.316406 23.953125 -12.703125 L 35.84375 -34.28125 C 36.039062 -34.65625 36.253906 -34.882812 36.484375 -34.96875 C 36.722656 -35.050781 37.054688 -35.09375 37.484375 -35.09375 Z M 40.984375 -35.09375 "/></g></g></g><g fill="#39b385" fill-opacity="1"><g transform="translate(50.126473, 104.076068)"><g><path d="M 11.140625 -26.421875 C 14.023438 -26.421875 16.519531 -25.882812 18.625 -24.8125 C 20.738281 -23.738281 22.359375 -22.203125 23.484375 -20.203125 C 24.609375 -18.203125 25.171875 -15.851562 25.171875 -13.15625 C 25.171875 -10.445312 24.609375 -8.097656 23.484375 -6.109375 C 22.359375 -4.128906 20.738281 -2.613281 18.625 -1.5625 C 16.519531 -0.519531 14.023438 0 11.140625 0 L 2.921875 0 L 2.921875 -26.421875 Z M 11.140625 -2.84375 C 14.554688 -2.84375 17.160156 -3.742188 18.953125 -5.546875 C 20.742188 -7.359375 21.640625 -9.894531 21.640625 -13.15625 C 21.640625 -16.4375 20.734375 -19 18.921875 -20.84375 C 17.117188 -22.6875 14.523438 -23.609375 11.140625 -23.609375 L 6.375 -23.609375 L 6.375 -2.84375 Z M 11.140625 -2.84375 "/></g></g></g><g fill="#39b385" fill-opacity="1"><g transform="translate(76.928959, 104.076068)"><g><path d="M 21.875 -11.1875 C 21.875 -10.53125 21.835938 -9.832031 21.765625 -9.09375 L 5.15625 -9.09375 C 5.28125 -7.050781 5.976562 -5.453125 7.25 -4.296875 C 8.53125 -3.148438 10.082031 -2.578125 11.90625 -2.578125 C 13.394531 -2.578125 14.640625 -2.921875 15.640625 -3.609375 C 16.640625 -4.304688 17.335938 -5.238281 17.734375 -6.40625 L 21.453125 -6.40625 C 20.898438 -4.40625 19.789062 -2.78125 18.125 -1.53125 C 16.457031 -0.28125 14.382812 0.34375 11.90625 0.34375 C 9.9375 0.34375 8.171875 -0.0976562 6.609375 -0.984375 C 5.054688 -1.867188 3.835938 -3.125 2.953125 -4.75 C 2.066406 -6.382812 1.625 -8.273438 1.625 -10.421875 C 1.625 -12.566406 2.050781 -14.445312 2.90625 -16.0625 C 3.769531 -17.6875 4.976562 -18.929688 6.53125 -19.796875 C 8.09375 -20.671875 9.882812 -21.109375 11.90625 -21.109375 C 13.875 -21.109375 15.613281 -20.675781 17.125 -19.8125 C 18.644531 -18.957031 19.816406 -17.78125 20.640625 -16.28125 C 21.460938 -14.78125 21.875 -13.082031 21.875 -11.1875 Z M 18.3125 -11.90625 C 18.3125 -13.21875 18.019531 -14.347656 17.4375 -15.296875 C 16.851562 -16.242188 16.0625 -16.960938 15.0625 -17.453125 C 14.070312 -17.941406 12.96875 -18.1875 11.75 -18.1875 C 10.007812 -18.1875 8.523438 -17.628906 7.296875 -16.515625 C 6.066406 -15.410156 5.363281 -13.875 5.1875 -11.90625 Z M 18.3125 -11.90625 "/></g></g></g><g fill="#39b385" fill-opacity="1"><g transform="translate(100.433257, 104.076068)"><g><path d="M 10.65625 -3.1875 L 17.09375 -20.765625 L 20.765625 -20.765625 L 12.625 0 L 8.609375 0 L 0.453125 -20.765625 L 4.171875 -20.765625 Z M 10.65625 -3.1875 "/></g></g></g><g fill="#39b385" fill-opacity="1"><g transform="translate(121.700853, 104.076068)"><g><path d="M 21.875 -11.1875 C 21.875 -10.53125 21.835938 -9.832031 21.765625 -9.09375 L 5.15625 -9.09375 C 5.28125 -7.050781 5.976562 -5.453125 7.25 -4.296875 C 8.53125 -3.148438 10.082031 -2.578125 11.90625 -2.578125 C 13.394531 -2.578125 14.640625 -2.921875 15.640625 -3.609375 C 16.640625 -4.304688 17.335938 -5.238281 17.734375 -6.40625 L 21.453125 -6.40625 C 20.898438 -4.40625 19.789062 -2.78125 18.125 -1.53125 C 16.457031 -0.28125 14.382812 0.34375 11.90625 0.34375 C 9.9375 0.34375 8.171875 -0.0976562 6.609375 -0.984375 C 5.054688 -1.867188 3.835938 -3.125 2.953125 -4.75 C 2.066406 -6.382812 1.625 -8.273438 1.625 -10.421875 C 1.625 -12.566406 2.050781 -14.445312 2.90625 -16.0625 C 3.769531 -17.6875 4.976562 -18.929688 6.53125 -19.796875 C 8.09375 -20.671875 9.882812 -21.109375 11.90625 -21.109375 C 13.875 -21.109375 15.613281 -20.675781 17.125 -19.8125 C 18.644531 -18.957031 19.816406 -17.78125 20.640625 -16.28125 C 21.460938 -14.78125 21.875 -13.082031 21.875 -11.1875 Z M 18.3125 -11.90625 C 18.3125 -13.21875 18.019531 -14.347656 17.4375 -15.296875 C 16.851562 -16.242188 16.0625 -16.960938 15.0625 -17.453125 C 14.070312 -17.941406 12.96875 -18.1875 11.75 -18.1875 C 10.007812 -18.1875 8.523438 -17.628906 7.296875 -16.515625 C 6.066406 -15.410156 5.363281 -13.875 5.1875 -11.90625 Z M 18.3125 -11.90625 "/></g></g></g><g fill="#39b385" fill-opacity="1"><g transform="translate(145.205151, 104.076068)"><g><path d="M 6.375 -28.046875 L 6.375 0 L 2.921875 0 L 2.921875 -28.046875 Z M 6.375 -28.046875 "/></g></g></g><g fill="#39b385" fill-opacity="1"><g transform="translate(154.531055, 104.076068)"><g><path d="M 11.984375 0.34375 C 10.035156 0.34375 8.269531 -0.0976562 6.6875 -0.984375 C 5.113281 -1.867188 3.875 -3.125 2.96875 -4.75 C 2.070312 -6.382812 1.625 -8.273438 1.625 -10.421875 C 1.625 -12.546875 2.082031 -14.421875 3 -16.046875 C 3.925781 -17.679688 5.1875 -18.929688 6.78125 -19.796875 C 8.375 -20.671875 10.15625 -21.109375 12.125 -21.109375 C 14.101562 -21.109375 15.882812 -20.671875 17.46875 -19.796875 C 19.0625 -18.929688 20.316406 -17.6875 21.234375 -16.0625 C 22.160156 -14.445312 22.625 -12.566406 22.625 -10.421875 C 22.625 -8.273438 22.148438 -6.382812 21.203125 -4.75 C 20.253906 -3.125 18.972656 -1.867188 17.359375 -0.984375 C 15.742188 -0.0976562 13.953125 0.34375 11.984375 0.34375 Z M 11.984375 -2.6875 C 13.210938 -2.6875 14.367188 -2.976562 15.453125 -3.5625 C 16.546875 -4.144531 17.425781 -5.015625 18.09375 -6.171875 C 18.769531 -7.335938 19.109375 -8.753906 19.109375 -10.421875 C 19.109375 -12.085938 18.78125 -13.5 18.125 -14.65625 C 17.46875 -15.820312 16.609375 -16.691406 15.546875 -17.265625 C 14.484375 -17.835938 13.332031 -18.125 12.09375 -18.125 C 10.832031 -18.125 9.675781 -17.835938 8.625 -17.265625 C 7.570312 -16.691406 6.726562 -15.820312 6.09375 -14.65625 C 5.46875 -13.5 5.15625 -12.085938 5.15625 -10.421875 C 5.15625 -8.734375 5.460938 -7.304688 6.078125 -6.140625 C 6.703125 -4.972656 7.53125 -4.101562 8.5625 -3.53125 C 9.601562 -2.96875 10.742188 -2.6875 11.984375 -2.6875 Z M 11.984375 -2.6875 "/></g></g></g><g fill="#39b385" fill-opacity="1"><g transform="translate(178.793558, 104.076068)"><g><path d="M 6.375 -16.9375 C 7.050781 -18.125 8.066406 -19.113281 9.421875 -19.90625 C 10.773438 -20.707031 12.347656 -21.109375 14.140625 -21.109375 C 15.984375 -21.109375 17.65625 -20.664062 19.15625 -19.78125 C 20.664062 -18.894531 21.847656 -17.648438 22.703125 -16.046875 C 23.566406 -14.441406 24 -12.582031 24 -10.46875 C 24 -8.363281 23.566406 -6.488281 22.703125 -4.84375 C 21.847656 -3.207031 20.664062 -1.929688 19.15625 -1.015625 C 17.65625 -0.109375 15.984375 0.34375 14.140625 0.34375 C 12.367188 0.34375 10.804688 -0.0507812 9.453125 -0.84375 C 8.097656 -1.644531 7.070312 -2.640625 6.375 -3.828125 L 6.375 9.859375 L 2.921875 9.859375 L 2.921875 -20.765625 L 6.375 -20.765625 Z M 20.46875 -10.46875 C 20.46875 -12.03125 20.148438 -13.390625 19.515625 -14.546875 C 18.890625 -15.710938 18.039062 -16.597656 16.96875 -17.203125 C 15.894531 -17.816406 14.710938 -18.125 13.421875 -18.125 C 12.160156 -18.125 10.988281 -17.8125 9.90625 -17.1875 C 8.832031 -16.570312 7.972656 -15.675781 7.328125 -14.5 C 6.691406 -13.320312 6.375 -11.960938 6.375 -10.421875 C 6.375 -8.859375 6.691406 -7.488281 7.328125 -6.3125 C 7.972656 -5.132812 8.832031 -4.234375 9.90625 -3.609375 C 10.988281 -2.992188 12.160156 -2.6875 13.421875 -2.6875 C 14.710938 -2.6875 15.894531 -2.992188 16.96875 -3.609375 C 18.039062 -4.234375 18.890625 -5.132812 19.515625 -6.3125 C 20.148438 -7.488281 20.46875 -8.875 20.46875 -10.46875 Z M 20.46875 -10.46875 "/></g></g></g><g fill="#39b385" fill-opacity="1"><g transform="translate(204.420826, 104.076068)"><g><path d="M 27.90625 -21.15625 C 29.519531 -21.15625 30.957031 -20.816406 32.21875 -20.140625 C 33.476562 -19.472656 34.472656 -18.46875 35.203125 -17.125 C 35.941406 -15.789062 36.3125 -14.164062 36.3125 -12.25 L 36.3125 0 L 32.90625 0 L 32.90625 -11.75 C 32.90625 -13.820312 32.390625 -15.40625 31.359375 -16.5 C 30.335938 -17.601562 28.957031 -18.15625 27.21875 -18.15625 C 25.425781 -18.15625 24 -17.578125 22.9375 -16.421875 C 21.875 -15.273438 21.34375 -13.617188 21.34375 -11.453125 L 21.34375 0 L 17.921875 0 L 17.921875 -11.75 C 17.921875 -13.820312 17.410156 -15.40625 16.390625 -16.5 C 15.367188 -17.601562 13.988281 -18.15625 12.25 -18.15625 C 10.445312 -18.15625 9.015625 -17.578125 7.953125 -16.421875 C 6.898438 -15.273438 6.375 -13.617188 6.375 -11.453125 L 6.375 0 L 2.921875 0 L 2.921875 -20.765625 L 6.375 -20.765625 L 6.375 -17.78125 C 7.050781 -18.863281 7.960938 -19.695312 9.109375 -20.28125 C 10.265625 -20.863281 11.535156 -21.15625 12.921875 -21.15625 C 14.671875 -21.15625 16.210938 -20.757812 17.546875 -19.96875 C 18.890625 -19.1875 19.890625 -18.039062 20.546875 -16.53125 C 21.128906 -17.988281 22.085938 -19.125 23.421875 -19.9375 C 24.765625 -20.75 26.257812 -21.15625 27.90625 -21.15625 Z M 27.90625 -21.15625 "/></g></g></g><g fill="#39b385" fill-opacity="1"><g transform="translate(243.468306, 104.076068)"><g><path d="M 21.875 -11.1875 C 21.875 -10.53125 21.835938 -9.832031 21.765625 -9.09375 L 5.15625 -9.09375 C 5.28125 -7.050781 5.976562 -5.453125 7.25 -4.296875 C 8.53125 -3.148438 10.082031 -2.578125 11.90625 -2.578125 C 13.394531 -2.578125 14.640625 -2.921875 15.640625 -3.609375 C 16.640625 -4.304688 17.335938 -5.238281 17.734375 -6.40625 L 21.453125 -6.40625 C 20.898438 -4.40625 19.789062 -2.78125 18.125 -1.53125 C 16.457031 -0.28125 14.382812 0.34375 11.90625 0.34375 C 9.9375 0.34375 8.171875 -0.0976562 6.609375 -0.984375 C 5.054688 -1.867188 3.835938 -3.125 2.953125 -4.75 C 2.066406 -6.382812 1.625 -8.273438 1.625 -10.421875 C 1.625 -12.566406 2.050781 -14.445312 2.90625 -16.0625 C 3.769531 -17.6875 4.976562 -18.929688 6.53125 -19.796875 C 8.09375 -20.671875 9.882812 -21.109375 11.90625 -21.109375 C 13.875 -21.109375 15.613281 -20.675781 17.125 -19.8125 C 18.644531 -18.957031 19.816406 -17.78125 20.640625 -16.28125 C 21.460938 -14.78125 21.875 -13.082031 21.875 -11.1875 Z M 18.3125 -11.90625 C 18.3125 -13.21875 18.019531 -14.347656 17.4375 -15.296875 C 16.851562 -16.242188 16.0625 -16.960938 15.0625 -17.453125 C 14.070312 -17.941406 12.96875 -18.1875 11.75 -18.1875 C 10.007812 -18.1875 8.523438 -17.628906 7.296875 -16.515625 C 6.066406 -15.410156 5.363281 -13.875 5.1875 -11.90625 Z M 18.3125 -11.90625 "/></g></g></g><g fill="#39b385" fill-opacity="1"><g transform="translate(266.972592, 104.076068)"><g><path d="M 13.046875 -21.15625 C 15.566406 -21.15625 17.609375 -20.390625 19.171875 -18.859375 C 20.742188 -17.328125 21.53125 -15.125 21.53125 -12.25 L 21.53125 0 L 18.125 0 L 18.125 -11.75 C 18.125 -13.820312 17.601562 -15.40625 16.5625 -16.5 C 15.53125 -17.601562 14.113281 -18.15625 12.3125 -18.15625 C 10.5 -18.15625 9.054688 -17.585938 7.984375 -16.453125 C 6.910156 -15.316406 6.375 -13.660156 6.375 -11.484375 L 6.375 0 L 2.921875 0 L 2.921875 -20.765625 L 6.375 -20.765625 L 6.375 -17.8125 C 7.050781 -18.875 7.976562 -19.695312 9.15625 -20.28125 C 10.332031 -20.863281 11.628906 -21.15625 13.046875 -21.15625 Z M 13.046875 -21.15625 "/></g></g></g><g fill="#39b385" fill-opacity="1"><g transform="translate(291.235095, 104.076068)"><g><path d="M 7.125 -17.921875 L 7.125 -5.6875 C 7.125 -4.675781 7.335938 -3.960938 7.765625 -3.546875 C 8.203125 -3.128906 8.945312 -2.921875 10 -2.921875 L 12.546875 -2.921875 L 12.546875 0 L 9.4375 0 C 7.519531 0 6.078125 -0.441406 5.109375 -1.328125 C 4.148438 -2.210938 3.671875 -3.664062 3.671875 -5.6875 L 3.671875 -17.921875 L 0.984375 -17.921875 L 0.984375 -20.765625 L 3.671875 -20.765625 L 3.671875 -26 L 7.125 -26 L 7.125 -20.765625 L 12.546875 -20.765625 L 12.546875 -17.921875 Z M 7.125 -17.921875 "/></g></g></g></svg>